<?xml version="1.0" encoding="UTF-8"?>
<svg id="logosandtypes_com" data-name="logosandtypes com" xmlns="http://www.w3.org/2000/svg" viewBox="0 0 150 150">
  <defs>
    <style>
      .cls-1 {
        fill: #0866ff;
      }

      .cls-2 {
        fill: none;
      }
    </style>
  </defs>
  <path class="cls-2" d="M0,0H150V150H0V0Z"/>
  <path id="path29" class="cls-1" d="M142.97,76.1c0-37.04-30.03-67.07-67.07-67.07S8.83,39.06,8.83,76.1c0,31.45,21.65,57.85,50.87,65.09v-44.6h-13.83v-20.49h13.83v-8.83c0-22.83,10.33-33.41,32.74-33.41,4.25,0,11.58,.83,14.58,1.67v18.58c-1.58-.17-4.33-.25-7.75-.25-11,0-15.25,4.17-15.25,15v7.25h21.91l-3.76,20.49h-18.14v46.08c33.21-4.01,58.94-32.29,58.94-66.58"/>
</svg>